<?xml version="1.0" encoding="UTF-8"?>
<!DOCTYPE svg PUBLIC "-//W3C//DTD SVG 1.1//EN" "http://www.w3.org/Graphics/SVG/1.1/DTD/svg11.dtd">
<!-- Creator: CorelDRAW -->
<svg xmlns="http://www.w3.org/2000/svg" xml:space="preserve" width="67.7334mm" height="67.2484mm" version="1.1" style="shape-rendering:geometricPrecision; text-rendering:geometricPrecision; image-rendering:optimizeQuality; fill-rule:evenodd; clip-rule:evenodd"
viewBox="0 0 6759.11 6710.71"
 xmlns:xlink="http://www.w3.org/1999/xlink"
 xmlns:xodm="http://www.corel.com/coreldraw/odm/2003">
 <defs>
  <style type="text/css">
   <![CDATA[
    .fil0 {fill:#008CD2}
   ]]>
  </style>
 </defs>
 <g id="Слой_x0020_1">
  <metadata id="CorelCorpID_0Corel-Layer"/>
  <path class="fil0" d="M3379.53 0c1866.51,0 3379.58,1502.24 3379.58,3355.39 0,801.65 -283.32,1537.53 -755.73,2114.55l-1517.98 -3563.21c-54.93,-122.42 -126.93,-219.38 -218.5,-290.85 -90.28,-70.32 -189.16,-123.65 -295.34,-156.37 -107.41,-33.94 -212.42,-54.54 -316.14,-64.22 -103.79,-9.69 -195.3,-13.34 -275.89,-12.12 -80.52,-1.22 -172.1,2.43 -275.82,12.12 -103.79,9.69 -208.74,30.29 -314.93,64.22 -107.46,32.72 -206.35,86.05 -296.63,156.37 -91.58,71.47 -163.57,168.43 -218.5,290.85l-1517.98 3563.21c-472.41,-577.02 -755.66,-1312.9 -755.66,-2114.55 0,-1853.15 1513.07,-3355.39 3379.52,-3355.39zm1290.95 6456.95c-397.76,163.43 -833.72,253.77 -1290.95,253.77 -457.23,0 -893.19,-90.34 -1290.95,-253.77l1210.43 -3292.31c4.84,-10.92 10.99,-25.48 19.51,-44.86 7.3,-19.38 17.06,-37.53 26.82,-53.32 10.99,-15.72 21.97,-24.25 34.19,-25.41 12.21,1.16 23.2,9.69 34.19,25.41 9.76,15.79 19.52,33.94 26.88,53.32 8.53,19.38 14.6,33.94 19.52,44.86l1210.36 3292.31z"/>
 </g>
</svg>
